<svg xmlns="http://www.w3.org/2000/svg" version="1.1" xmlns:xlink="http://www.w3.org/1999/xlink" xmlns:svgjs="http://svgjs.dev/svgjs" width="1440" height="560" preserveAspectRatio="none" viewBox="0 0 1440 560"><g mask="url(&quot;#SvgjsMask1026&quot;)" fill="none"><rect width="1440" height="560" x="0" y="0" fill="rgba(51, 51, 51, 1)"></rect><path d="M853.204727815903 100.49075975092231L852.1779207233467 159.31649868566473 940.9299326717384 131.44383985712795z" fill="rgba(94, 89, 89, 0.3)" class="triangle-float2"></path><path d="M1173.5274600765147 285.7618380008388L1052.8856945698012 281.5489347165014 1048.672791285464 402.19070022321483 1169.3145567921772 406.40360350755225z" fill="rgba(94, 89, 89, 0.3)" class="triangle-float1"></path><path d="M265.28036324590033 311.17148921040484L291.06700452731684 422.86570379968015 402.76121911659214 397.07906251826364 376.97457783517564 285.38484792898834z" fill="rgba(94, 89, 89, 0.3)" class="triangle-float2"></path><path d="M848.2634611663146 417.7832634771605L817.3135696746884 327.89825194429346 727.4285581418214 358.84814343591967 758.3784496334476 448.7331549687867z" fill="rgba(94, 89, 89, 0.3)" class="triangle-float2"></path><path d="M503.5902002901815 509.65296562905746L641.4387592896953 559.8257379413689 553.7629726024928 371.8044066295436z" fill="rgba(94, 89, 89, 0.3)" class="triangle-float3"></path><path d="M1380.387995114008-55.10318563649025L1358.0084931016129 41.833087408692876 1454.944766146796 64.21258942108798 1477.324268159191-32.723683624095145z" fill="rgba(94, 89, 89, 0.3)" class="triangle-float1"></path><path d="M1215.523094472303 430.79983001726725L1156.340567381552 384.56137226091914 1116.5741442924054 496.4543917752196z" fill="rgba(94, 89, 89, 0.3)" class="triangle-float3"></path><path d="M916.12,583.84C956.376,582.161,989.48,555.758,1009.706,520.912C1030.027,485.903,1038.84,442.767,1018.225,407.93C997.911,373.602,956.002,362.072,916.12,362.762C877.632,363.428,840.919,379.074,819.955,411.359C796.884,446.888,787.332,492.325,807.961,529.326C829.033,567.121,872.886,585.643,916.12,583.84" fill="rgba(94, 89, 89, 0.3)" class="triangle-float1"></path><path d="M581.534,299.909C631.781,296.469,669.449,258.735,693.804,214.65C717.203,172.296,727.384,121.498,703.278,79.542C679.098,37.457,630.014,21.596,581.534,19.246C527.413,16.622,467.61,21.628,437.469,66.656C404.59,115.774,407.996,181.803,439.056,232.091C468.68,280.055,525.291,303.759,581.534,299.909" fill="rgba(94, 89, 89, 0.3)" class="triangle-float1"></path><path d="M353.585,179.428C371.237,179.545,387.87,170.653,396.759,155.403C405.711,140.045,406.162,120.626,396.591,105.646C387.637,91.631,370.203,87.175,353.585,87.828C338.236,88.431,324.242,95.81,316.057,108.809C307.25,122.795,303.637,140.241,311.393,154.836C319.581,170.244,336.137,179.312,353.585,179.428" fill="rgba(94, 89, 89, 0.3)" class="triangle-float1"></path><path d="M1412.651,148.099C1439.217,149.134,1466.424,138.044,1479.151,114.702C1491.463,92.121,1483.009,65.38,1469.778,43.325C1457.016,22.051,1437.458,4.122,1412.651,3.851C1387.442,3.575,1365.434,19.943,1353.317,42.051C1341.673,63.295,1342.727,88.706,1354.556,109.848C1366.69,131.534,1387.82,147.132,1412.651,148.099" fill="rgba(94, 89, 89, 0.3)" class="triangle-float1"></path><path d="M649.1326885905386 471.9354551969001L766.0925914234851 505.47316765304606 799.6303038796311 388.5132648200995 682.6704010466846 354.9755523639535z" fill="rgba(94, 89, 89, 0.3)" class="triangle-float2"></path><path d="M370.87745662899357 379.51324587670774L243.94867174987976 397.3519232513787 261.7873491245507 524.2807081304925 388.71613400366454 506.4420307558215z" fill="rgba(94, 89, 89, 0.3)" class="triangle-float2"></path></g><defs><mask id="SvgjsMask1026"><rect width="1440" height="560" fill="#ffffff"></rect></mask><style>
                @keyframes float1 {
                    0%{transform: translate(0, 0)}
                    50%{transform: translate(-10px, 0)}
                    100%{transform: translate(0, 0)}
                }

                .triangle-float1 {
                    animation: float1 5s infinite;
                }

                @keyframes float2 {
                    0%{transform: translate(0, 0)}
                    50%{transform: translate(-5px, -5px)}
                    100%{transform: translate(0, 0)}
                }

                .triangle-float2 {
                    animation: float2 4s infinite;
                }

                @keyframes float3 {
                    0%{transform: translate(0, 0)}
                    50%{transform: translate(0, -10px)}
                    100%{transform: translate(0, 0)}
                }

                .triangle-float3 {
                    animation: float3 6s infinite;
                }
            </style></defs></svg>